# xmcd CD database file
# Copyright (C) 1993-1998 Ti Kan
#
# Track frame offsets:
#	151
#	15726
#	32947
#	47976
#	63890
#	82176
#	99335
#	118644
#	129740
#	143322
#	159503
#	175933
#	197288
#	207483
#	227616
#
# Disc length: 3216 seconds
#
# Revision: 1
# Processed by: cddbd v1.4b41PL1 Copyright (c) Steve Scherf et al.
# Submitted via: XfreeCD 0.7.7
#
DISCID=c60c8e0f
DTITLE=Newfoundland Kitchen Party - Rebels, Rouges and Pirates
DYEAR=1900
DGENRE=
TTITLE0=Whiskey in the Jar
TTITLE1=The Swiler
TTITLE2=Farewell to Nova Scotia
TTITLE3=Sam Hall
TTITLE4=The Pirate Admiral
TTITLE5=The Irish Rover
TTITLE6=The Wild Colonial Bay
TTITLE7=Excursion 'Round the Bay
TTITLE8=Kelly, the Boy from Killann
TTITLE9=The Northern Lights of Labrador
TTITLE10=God Save Ireland
TTITLE11=The Black Velvet Band
TTITLE12=Princess Street
TTITLE13=Belfast Mill
TTITLE14=Henry My Son/Mussels in the Corner
EXTD=
EXTT0=
EXTT1=
EXTT2=
EXTT3=
EXTT4=
EXTT5=
EXTT6=
EXTT7=
EXTT8=
EXTT9=
EXTT10=
EXTT11=
EXTT12=
EXTT13=
EXTT14=
PLAYORDER=
